<svg xmlns="http://www.w3.org/2000/svg" xmlns:xlink="http://www.w3.org/1999/xlink" width="500" zoomAndPan="magnify" viewBox="0 0 375 374.999991" height="500" preserveAspectRatio="xMidYMid meet" version="1.0"><path fill="#094886" d="M 97.523438 255.8125 C 97.828125 255.070312 98.074219 231.472656 98.074219 203.375 L 98.074219 152.285156 L 118.507812 141.246094 L 138.945312 130.210938 L 138.945312 234.730469 L 118.730469 245.644531 C 95.410156 258.238281 96.8125 257.5625 97.523438 255.8125 Z M 243 245.78125 L 222.355469 234.632812 L 222.355469 130.253906 L 233.40625 136.171875 C 256.941406 148.773438 263.371094 152.394531 263.714844 153.25 C 263.914062 153.738281 263.976562 177.265625 263.859375 205.53125 L 263.644531 256.929688 Z M 153.125 161.097656 L 153.125 122.617188 L 166.222656 115.527344 C 173.425781 111.628906 179.902344 108.441406 180.617188 108.441406 C 181.332031 108.441406 187.828125 111.613281 195.046875 115.488281 L 208.175781 122.535156 L 208.175781 199.675781 L 205.808594 196.601562 C 202.210938 191.925781 196.792969 187.660156 191.601562 185.414062 C 185.476562 182.765625 176.292969 182.59375 170.640625 185.023438 C 165.160156 187.378906 160.324219 190.976562 156.496094 195.550781 L 153.125 199.582031 Z M 153.125 161.097656 " fill-opacity="1" fill-rule="nonzero"/><path fill="#ffcc00" d="M 180.558594 199.589844 C 179.753906 199.589844 178.949219 199.628906 178.148438 199.707031 C 177.347656 199.785156 176.550781 199.90625 175.761719 200.0625 C 174.96875 200.21875 174.191406 200.414062 173.417969 200.648438 C 172.648438 200.882812 171.890625 201.152344 171.148438 201.460938 C 170.402344 201.769531 169.675781 202.113281 168.964844 202.492188 C 168.253906 202.875 167.5625 203.285156 166.894531 203.734375 C 166.226562 204.183594 165.578125 204.660156 164.957031 205.171875 C 164.332031 205.683594 163.738281 206.222656 163.167969 206.792969 C 162.597656 207.363281 162.058594 207.960938 161.546875 208.582031 C 161.035156 209.203125 160.554688 209.851562 160.109375 210.519531 C 159.660156 211.191406 159.246094 211.878906 158.867188 212.589844 C 158.488281 213.300781 158.144531 214.027344 157.835938 214.773438 C 157.527344 215.515625 157.257812 216.273438 157.023438 217.046875 C 156.789062 217.816406 156.59375 218.597656 156.4375 219.386719 C 156.277344 220.175781 156.160156 220.972656 156.082031 221.773438 C 156.003906 222.574219 155.964844 223.378906 155.964844 224.183594 C 155.964844 224.992188 156.003906 225.792969 156.082031 226.597656 C 156.160156 227.398438 156.277344 228.195312 156.4375 228.984375 C 156.59375 229.773438 156.789062 230.554688 157.023438 231.324219 C 157.257812 232.097656 157.527344 232.855469 157.835938 233.597656 C 158.144531 234.34375 158.488281 235.070312 158.867188 235.78125 C 159.246094 236.492188 159.660156 237.179688 160.109375 237.851562 C 160.554688 238.519531 161.035156 239.167969 161.546875 239.789062 C 162.058594 240.410156 162.597656 241.007812 163.167969 241.578125 C 163.738281 242.148438 164.332031 242.6875 164.957031 243.199219 C 165.578125 243.710938 166.222656 244.1875 166.894531 244.636719 C 167.5625 245.085938 168.253906 245.496094 168.964844 245.878906 C 169.675781 246.257812 170.402344 246.601562 171.148438 246.910156 C 171.890625 247.21875 172.648438 247.488281 173.417969 247.722656 C 174.191406 247.957031 174.96875 248.152344 175.761719 248.308594 C 176.550781 248.464844 177.347656 248.585938 178.148438 248.664062 C 178.949219 248.742188 179.753906 248.78125 180.558594 248.78125 C 181.363281 248.78125 182.167969 248.742188 182.96875 248.664062 C 183.773438 248.585938 184.566406 248.46875 185.359375 248.308594 C 186.148438 248.152344 186.929688 247.957031 187.699219 247.722656 C 188.46875 247.488281 189.226562 247.21875 189.972656 246.910156 C 190.714844 246.601562 191.445312 246.257812 192.152344 245.878906 C 192.863281 245.5 193.554688 245.085938 194.222656 244.636719 C 194.894531 244.191406 195.539062 243.710938 196.164062 243.199219 C 196.785156 242.6875 197.382812 242.148438 197.953125 241.578125 C 198.519531 241.007812 199.0625 240.414062 199.574219 239.789062 C 200.082031 239.167969 200.5625 238.519531 201.011719 237.851562 C 201.457031 237.179688 201.871094 236.492188 202.25 235.78125 C 202.632812 235.070312 202.976562 234.34375 203.285156 233.597656 C 203.59375 232.855469 203.863281 232.097656 204.097656 231.324219 C 204.332031 230.554688 204.527344 229.773438 204.683594 228.984375 C 204.839844 228.195312 204.957031 227.398438 205.039062 226.597656 C 205.117188 225.792969 205.15625 224.992188 205.15625 224.183594 C 205.15625 223.378906 205.117188 222.574219 205.039062 221.773438 C 204.957031 220.972656 204.839844 220.175781 204.683594 219.386719 C 204.527344 218.597656 204.332031 217.816406 204.097656 217.046875 C 203.863281 216.273438 203.59375 215.515625 203.285156 214.773438 C 202.976562 214.027344 202.632812 213.300781 202.25 212.589844 C 201.871094 211.878906 201.457031 211.191406 201.011719 210.519531 C 200.5625 209.851562 200.082031 209.203125 199.574219 208.582031 C 199.0625 207.957031 198.519531 207.363281 197.953125 206.792969 C 197.382812 206.222656 196.785156 205.683594 196.164062 205.171875 C 195.539062 204.660156 194.894531 204.183594 194.222656 203.734375 C 193.554688 203.285156 192.863281 202.875 192.152344 202.492188 C 191.445312 202.113281 190.714844 201.769531 189.972656 201.460938 C 189.226562 201.152344 188.46875 200.882812 187.699219 200.648438 C 186.929688 200.414062 186.148438 200.21875 185.359375 200.0625 C 184.566406 199.90625 183.773438 199.785156 182.96875 199.707031 C 182.167969 199.628906 181.363281 199.589844 180.558594 199.589844 Z M 180.558594 207.5625 C 181.105469 207.5625 181.648438 207.589844 182.1875 207.644531 C 182.730469 207.695312 183.269531 207.777344 183.800781 207.882812 C 184.335938 207.988281 184.863281 208.121094 185.382812 208.277344 C 185.90625 208.4375 186.417969 208.621094 186.921875 208.828125 C 187.421875 209.035156 187.914062 209.269531 188.394531 209.527344 C 188.875 209.78125 189.339844 210.0625 189.792969 210.363281 C 190.246094 210.667969 190.683594 210.992188 191.105469 211.335938 C 191.523438 211.679688 191.929688 212.046875 192.3125 212.429688 C 192.699219 212.816406 193.0625 213.21875 193.410156 213.640625 C 193.753906 214.0625 194.078125 214.496094 194.378906 214.949219 C 194.683594 215.402344 194.960938 215.871094 195.21875 216.347656 C 195.476562 216.828125 195.707031 217.320312 195.917969 217.824219 C 196.125 218.328125 196.308594 218.839844 196.464844 219.359375 C 196.625 219.882812 196.757812 220.410156 196.863281 220.941406 C 196.96875 221.476562 197.046875 222.015625 197.101562 222.554688 C 197.15625 223.097656 197.183594 223.640625 197.183594 224.183594 C 197.183594 224.730469 197.15625 225.273438 197.101562 225.816406 C 197.046875 226.355469 196.96875 226.894531 196.863281 227.429688 C 196.757812 227.960938 196.625 228.488281 196.464844 229.011719 C 196.308594 229.53125 196.125 230.042969 195.917969 230.546875 C 195.707031 231.050781 195.476562 231.539062 195.21875 232.019531 C 194.960938 232.5 194.683594 232.96875 194.378906 233.421875 C 194.078125 233.871094 193.753906 234.308594 193.410156 234.730469 C 193.0625 235.152344 192.699219 235.554688 192.3125 235.9375 C 191.929688 236.324219 191.523438 236.6875 191.105469 237.035156 C 190.683594 237.378906 190.246094 237.703125 189.792969 238.007812 C 189.339844 238.308594 188.875 238.589844 188.394531 238.84375 C 187.914062 239.101562 187.421875 239.335938 186.921875 239.542969 C 186.417969 239.75 185.90625 239.933594 185.382812 240.09375 C 184.863281 240.25 184.335938 240.382812 183.800781 240.488281 C 183.269531 240.59375 182.730469 240.675781 182.1875 240.726562 C 181.648438 240.78125 181.105469 240.808594 180.558594 240.808594 C 180.015625 240.808594 179.472656 240.78125 178.929688 240.726562 C 178.386719 240.675781 177.851562 240.59375 177.316406 240.488281 C 176.78125 240.382812 176.253906 240.25 175.734375 240.09375 C 175.214844 239.933594 174.699219 239.75 174.199219 239.542969 C 173.695312 239.335938 173.203125 239.101562 172.722656 238.84375 C 172.242188 238.589844 171.777344 238.308594 171.324219 238.007812 C 170.871094 237.703125 170.433594 237.378906 170.015625 237.035156 C 169.59375 236.6875 169.191406 236.324219 168.804688 235.9375 C 168.421875 235.554688 168.054688 235.152344 167.710938 234.730469 C 167.363281 234.308594 167.039062 233.871094 166.738281 233.421875 C 166.433594 232.96875 166.15625 232.5 165.898438 232.019531 C 165.644531 231.539062 165.410156 231.050781 165.203125 230.546875 C 164.992188 230.042969 164.808594 229.53125 164.652344 229.011719 C 164.496094 228.488281 164.363281 227.960938 164.257812 227.429688 C 164.148438 226.894531 164.070312 226.355469 164.015625 225.816406 C 163.964844 225.273438 163.9375 224.730469 163.9375 224.183594 C 163.9375 223.640625 163.964844 223.097656 164.015625 222.554688 C 164.070312 222.015625 164.148438 221.476562 164.257812 220.941406 C 164.363281 220.410156 164.496094 219.882812 164.652344 219.359375 C 164.808594 218.839844 164.992188 218.328125 165.203125 217.824219 C 165.410156 217.320312 165.644531 216.828125 165.898438 216.347656 C 166.15625 215.871094 166.4375 215.402344 166.738281 214.949219 C 167.039062 214.496094 167.363281 214.0625 167.710938 213.640625 C 168.054688 213.21875 168.421875 212.816406 168.804688 212.429688 C 169.191406 212.046875 169.59375 211.679688 170.015625 211.335938 C 170.433594 210.992188 170.871094 210.667969 171.324219 210.363281 C 171.777344 210.0625 172.242188 209.78125 172.722656 209.527344 C 173.203125 209.269531 173.695312 209.035156 174.199219 208.828125 C 174.699219 208.621094 175.214844 208.4375 175.734375 208.277344 C 176.253906 208.121094 176.78125 207.988281 177.316406 207.882812 C 177.851562 207.777344 178.386719 207.695312 178.929688 207.644531 C 179.472656 207.589844 180.015625 207.5625 180.558594 207.5625 Z M 180.558594 207.5625 " fill-opacity="1" fill-rule="nonzero"/></svg>